
        <svg xmlns="http://www.w3.org/2000/svg" xmlns:xlink="http://www.w3.org/1999/xlink" version="1.1" width="3160.2594410675365" 
        height="1310.6057072072588" viewBox="-32.05188821350724 0 3160.2594410675365 1310.6057072072588">
			<rect fill="#f9f7f7" width="3160.2594410675365" height="1310.6057072072588"/>
			<g transform="scale(8.01297205337681) translate(10, 10)">
				<defs id="SvgjsDefs2746"></defs><g id="SvgjsG2747" featureKey="HKaMnE-0" transform="matrix(2.0934513436127897,0,0,2.0934513436127897,-8.186904683696358,13.766513160969161)" fill="#1190cb"><path xmlns="http://www.w3.org/2000/svg" d="M21.383,26.224a1.133,1.133,0,0,0-.094.074,1.039,1.039,0,0,0-.086.112.9.9,0,0,0-.07.093,1.054,1.054,0,0,0-.06.143.99.99,0,0,0-.038.095A.969.969,0,0,0,21,27V37a1,1,0,0,0,.485.857l10,6,.011.005.011.008a.973.973,0,0,0,.164.067c.023.008.045.021.069.028a.983.983,0,0,0,.52,0c.024-.007.046-.02.069-.028a.973.973,0,0,0,.164-.067l.011-.008.011-.005,10-6A1,1,0,0,0,43,37V27a.982.982,0,0,0-.035-.26.774.774,0,0,0-.037-.09,1.057,1.057,0,0,0-.061-.147,1,1,0,0,0-.069-.092.944.944,0,0,0-.087-.113,1.118,1.118,0,0,0-.093-.074,1.146,1.146,0,0,0-.1-.081l-10-6a1,1,0,0,0-1.03,0l-10,6A.884.884,0,0,0,21.383,26.224ZM41,36.434l-8,4.8V33.566l8-4.8ZM40.056,27,32,31.834,28.944,30,37,25.166ZM32,22.166,35.056,24,27,28.834,23.944,27Zm-9,6.6,8,4.8v7.667l-8-4.8Z"></path><path xmlns="http://www.w3.org/2000/svg" d="M33,6l1.2,1.6,1.6-1.2-3-4a1.036,1.036,0,0,0-1.6,0l-3,4,1.6,1.2L31,6v8h2Z"></path><path xmlns="http://www.w3.org/2000/svg" d="M33,58V50H31v8l-1.2-1.6-1.6,1.2,3,4a1,1,0,0,0,1.6,0l3-4-1.6-1.2Z"></path><rect xmlns="http://www.w3.org/2000/svg" x="31" y="16" width="2" height="2"></rect><rect xmlns="http://www.w3.org/2000/svg" x="31" y="46" width="2" height="2"></rect><path xmlns="http://www.w3.org/2000/svg" d="M14,33V31H6l1.6-1.2L6.4,28.2l-4,3a1,1,0,0,0,0,1.6l4,3,1.2-1.6L6,33Z"></path><path xmlns="http://www.w3.org/2000/svg" d="M57.6,28.2l-1.2,1.6L58,31H50v2h8l-1.6,1.2,1.2,1.6,4-3a1,1,0,0,0,0-1.6Z"></path><rect xmlns="http://www.w3.org/2000/svg" x="16" y="31" width="2" height="2"></rect><rect xmlns="http://www.w3.org/2000/svg" x="46" y="31" width="2" height="2"></rect><path xmlns="http://www.w3.org/2000/svg" d="M19.979,18.565l-5.656-5.656,1.979.282.283-1.98L11.636,10.5A1,1,0,0,0,10.5,11.636l.707,4.949,1.98-.283-.282-1.979,5.656,5.656Z"></path><path xmlns="http://www.w3.org/2000/svg" d="M50.809,47.7l.282,1.979-5.656-5.656-1.414,1.414,5.656,5.656L47.7,50.809l-.283,1.98,4.949.707a.978.978,0,0,0,.142.01,1,1,0,0,0,.99-1.142l-.707-4.949Z"></path><rect xmlns="http://www.w3.org/2000/svg" x="20.394" y="20.394" width="2" height="2" transform="translate(-8.862 21.394) rotate(-45)"></rect><rect xmlns="http://www.w3.org/2000/svg" x="41.607" y="41.607" width="2" height="2" transform="translate(-17.648 42.606) rotate(-45)"></rect><path xmlns="http://www.w3.org/2000/svg" d="M18.565,44.021l-5.656,5.656.282-1.979-1.98-.283L10.5,52.364a1,1,0,0,0,.99,1.142.978.978,0,0,0,.142-.01l4.949-.707-.283-1.98-1.979.282,5.656-5.656Z"></path><path xmlns="http://www.w3.org/2000/svg" d="M52.789,16.585l.707-4.949a1,1,0,0,0-.283-.849.99.99,0,0,0-.849-.283l-4.949.707.283,1.98,1.979-.282-5.656,5.656,1.414,1.414,5.656-5.656L50.809,16.3Z"></path><rect xmlns="http://www.w3.org/2000/svg" x="20.394" y="41.607" width="2" height="2" transform="translate(-23.861 27.607) rotate(-45)"></rect><rect xmlns="http://www.w3.org/2000/svg" x="41.607" y="20.394" width="2" height="2" transform="translate(-2.648 36.393) rotate(-45)"></rect></g><g id="SvgjsG2748" featureKey="J3GnXt-0" transform="matrix(7.4598705360306425,0,0,7.4598705360306425,132.42303612242432,-13.56564506870486)" fill="#7dccff"><path d="M3.74 5.84 l0 6.12 l0.16 0 l6.26 -6.12 l2.68 0 l-6.84 6.54 l7.3 7.62 l-2.8 0 l-6.6 -7.08 l-0.16 0 l0 7.08 l-1.92 0 l0 -14.16 l1.92 0 z M18.12 10.28 c1.2 0 2.15 0.27328 2.85 0.81994 s1.07 1.3067 1.11 2.28 l0 5.08 c0 0.48 0.02666 0.99334 0.08 1.54 l-1.6 0 c-0.04 -0.42666 -0.06 -0.90666 -0.06 -1.44 l-0.04 0 c-0.41334 0.61334 -0.89 1.0467 -1.43 1.3 s-1.17 0.38 -1.89 0.38 c-0.97334 0 -1.7633 -0.26 -2.37 -0.78 s-0.91 -1.2067 -0.91 -2.06 c0 -1.08 0.45334 -1.8967 1.36 -2.45 s2.1866 -0.83 3.84 -0.83 l1.34 0 l0 -0.34 c0 -0.64 -0.21 -1.1433 -0.63 -1.51 s-0.97 -0.55 -1.65 -0.55 c-0.50666 0 -0.95 0.07666 -1.33 0.23 s-0.83 0.43668 -1.35 0.85002 l-1.08 -1.12 c1.0267 -0.90666 2.28 -1.3733 3.76 -1.4 z M15.66 17.259999999999998 c0 1.0267 0.68002 1.54 2.04 1.54 c0.81334 0 1.4633 -0.24334 1.95 -0.73 s0.73666 -1.19 0.75 -2.11 l0 -0.52 l-1.02 0 c-1.1733 0 -2.0866 0.15 -2.74 0.45 s-0.98 0.75666 -0.98 1.37 z M31.620000000000005 10.52 l0 1.6 l-5.42 6.32 l5.7 0 l0 1.56 l-7.86 0 l0 -1.62 l5.38 -6.3 l-5.2 0 l0 -1.56 l7.4 0 z"></path></g>
			</g>
		</svg>
	