<svg id="SvgjsSvg1039" width="288" height="288" xmlns="http://www.w3.org/2000/svg" version="1.1" xmlns:xlink="http://www.w3.org/1999/xlink" xmlns:svgjs="http://svgjs.com/svgjs"><defs id="SvgjsDefs1040"></defs><g id="SvgjsG1041"><svg xmlns="http://www.w3.org/2000/svg" enable-background="new 9.229 2.075 80.687 100" viewBox="9.229 2.075 80.687 125" width="288" height="288"><rect width="10.069" height="7.847" x="43.984" y="62.946" fill="#1190cb" class="color000 svgShape"></rect><rect width="10.069" height="7.847" x="31.276" y="30.151" fill="#1190cb" class="color000 svgShape"></rect><rect width="10.069" height="7.845" x="43.984" y="52.016" fill="#1190cb" class="color000 svgShape"></rect><rect width="10.069" height="7.846" x="43.984" y="41.083" fill="#1190cb" class="color000 svgShape"></rect><rect width="10.069" height="7.845" x="31.276" y="52.016" fill="#1190cb" class="color000 svgShape"></rect><rect width="10.069" height="7.847" x="31.276" y="62.946" fill="#1190cb" class="color000 svgShape"></rect><rect width="10.069" height="7.847" x="43.984" y="30.151" fill="#1190cb" class="color000 svgShape"></rect><rect width="10.069" height="7.846" x="31.276" y="41.083" fill="#1190cb" class="color000 svgShape"></rect><path d="M49.572,2.075c-22.281,0-40.343,18.065-40.343,40.354c0,8.916,6.461,20.242,14.209,30.626
	c6.297,8.439,13.435,16.246,18.663,21.636c4.417,4.552,7.471,7.383,7.471,7.383s3.054-2.831,7.471-7.383
	c5.054-5.209,11.89-12.677,18.03-20.792c8.025-10.611,14.842-22.312,14.842-31.47C89.915,20.14,71.853,2.075,49.572,2.075z
	 M75.073,64.137c-6.216,9.402-14.571,18.541-20.069,24.166v-4.258c0-2.338-1.897-4.233-4.233-4.233h-3.316
	c-2.337,0-4.232,1.896-4.232,4.233v3.92C37.709,82.3,29.535,73.31,23.438,64.068V26.677c0-2.337,1.896-4.232,4.232-4.232h43.171
	c2.337,0,4.232,1.896,4.232,4.232V64.137z" fill="#1190cb" class="color000 svgShape"></path><rect width="10.069" height="7.845" x="56.69" y="52.016" fill="#1190cb" class="color000 svgShape"></rect><rect width="10.069" height="7.846" x="56.69" y="41.083" fill="#1190cb" class="color000 svgShape"></rect><rect width="10.069" height="7.847" x="56.69" y="62.946" fill="#1190cb" class="color000 svgShape"></rect><rect width="10.069" height="7.847" x="56.69" y="30.151" fill="#1190cb" class="color000 svgShape"></rect></svg></g></svg>